<?xml version="1.0" standalone="no"?>
<!DOCTYPE svg PUBLIC "-//W3C//DTD SVG 20010904//EN"
 "http://www.w3.org/TR/2001/REC-SVG-20010904/DTD/svg10.dtd">
<svg version="1.0" xmlns="http://www.w3.org/2000/svg"
 width="50.000000pt" height="50.000000pt" viewBox="0 0 50.000000 50.000000"
 preserveAspectRatio="xMidYMid meet">

<g transform="translate(0.000000,50.000000) scale(0.100000,-0.100000)"
fill="#000000" stroke="none">
<path d="M235 480 c-4 -6 -4 -23 -1 -36 6 -21 9 -24 21 -14 19 16 19 34 1 49
-10 9 -16 9 -21 1z"/>
<path d="M65 412 c-4 -4 26 -11 66 -17 71 -10 73 -11 84 -45 8 -24 9 -42 2
-57 -6 -14 -6 -64 3 -150 10 -112 14 -129 30 -129 15 0 19 17 29 127 8 93 9
133 0 151 -8 19 -7 33 4 61 15 35 17 36 86 43 39 3 68 10 66 14 -6 10 -361 11
-370 2z m195 -196 c0 -8 -4 -18 -10 -21 -5 -3 -10 3 -10 14 0 12 5 21 10 21 6
0 10 -6 10 -14z m0 -117 c0 -16 -4 -29 -10 -29 -5 0 -10 16 -10 36 0 21 4 33
10 29 6 -3 10 -19 10 -36z"/>
</g>
</svg>
