<?xml version="1.0" encoding="UTF-8" standalone="no"?>
<!DOCTYPE svg PUBLIC "-//W3C//DTD SVG 1.1//EN" "http://www.w3.org/Graphics/SVG/1.1/DTD/svg11.dtd">
<svg  width="100%" height="100%" viewBox="0 0 3800 2238" version="1.1" xmlns="http://www.w3.org/2000/svg" xmlns:xlink="http://www.w3.org/1999/xlink" xml:space="preserve" xmlns:serif="http://www.serif.com/" style="fill-rule:evenodd;clip-rule:evenodd;">
    <g transform="matrix(1,0,0,1,-370.447,-71.367)">
        <path d="M1463.45,720.49C1465.88,719.84 1468.44,719.93 1470.96,719.98C1494.82,721.03 1518.74,721.26 1542.59,722.55C1560.23,729.98 1577.46,738.52 1595.18,745.8C1642.78,755.74 1690.46,765.38 1738.1,775.19C1741.33,775.76 1744.55,776.96 1747.89,776.55C1793.34,770.56 1838.78,764.58 1884.23,758.61C1889.4,758.06 1894.61,756.64 1899.83,757.62C1905.79,758.65 1911.93,758.76 1917.79,760.34C1934.78,766.28 1951.75,772.31 1968.75,778.21C1974.69,779.61 1980.9,779.13 1986.95,779.84C1992.49,780.65 1997.81,778.58 2003.18,777.55C2018.17,774.25 2033.13,770.77 2048.14,767.56C2071.38,765.28 2094.65,763.25 2117.91,761.08C2122.99,760.78 2128.08,759.59 2133.19,760.33C2142.02,761.49 2150.88,762.55 2159.72,763.71C2163.35,764.21 2167.11,764.33 2170.6,765.61C2181.03,769.46 2191.49,773.23 2201.92,777.09C2203.81,777.69 2205.71,778.88 2207.81,778.52C2215.21,777.22 2222.55,775.47 2230,774.39C2248,774.04 2265.99,774.97 2284,774.66C2295.65,775.23 2307.33,774.94 2319,774.98C2323.86,774.86 2328.36,776.94 2332.99,778.15C2347.94,782.58 2362.91,786.97 2377.86,791.43C2380.89,792.53 2384.02,791.08 2387.06,790.65C2418.39,784.32 2449.74,778.1 2481.08,771.82C2488.4,770.56 2495.63,768.47 2503.02,767.74C2540.42,778.77 2577.66,790.44 2615.04,801.59C2617.66,801.86 2620.22,800.46 2622.79,799.87C2642.49,794.1 2662.19,788.32 2681.89,782.58C2707.27,790.82 2732.7,798.91 2758.11,807.08C2763.47,802.94 2768.89,798.86 2774.2,794.64C2780.45,795.67 2786.7,796.77 2792.97,797.73C2797.43,803.39 2802.45,808.68 2806.03,814.98C2807.18,816.73 2807.99,818.98 2810,819.99C2813.61,821.9 2817.33,823.63 2821,825.48C2825.58,822.59 2830.47,820.14 2834.87,816.96C2838.89,812.17 2842.36,806.94 2846.26,802.04C2850.93,803.5 2855.64,804.92 2860.38,806.25C2858.94,812.95 2857.2,819.59 2855.65,826.27C2864.83,831.17 2874.14,835.86 2883.21,840.94C2884.8,843.23 2885.05,846.28 2886.07,848.9C2888.39,858.16 2893.61,866.28 2897.4,874.98C2904.89,875.5 2912.44,876.17 2919.95,876.16C2935.77,871.53 2951.49,866.51 2967.29,861.78C2967.33,858 2967.31,854.22 2967.36,850.45C2960.21,849.34 2953.03,848.52 2945.87,847.61C2942.05,847.39 2939.03,844.81 2935.67,843.32C2930.27,840.78 2925.1,837.81 2919.74,835.22C2915.6,833.39 2912.99,829.52 2909.75,826.57C2899.16,816.25 2889.15,805.38 2878.73,794.91C2909.57,804.52 2940.35,814.35 2971.18,824.02C2982.3,827.19 2993.98,828.26 3004.84,832.44C3015.05,836.38 3026.03,837.45 3036.69,839.66C3043.39,836.27 3050.47,833.59 3057.12,830.09C3061.73,823.82 3065.6,817 3070.05,810.6C3081.06,813.07 3092.12,815.3 3103.13,817.82C3124.93,824.11 3146.75,830.38 3168.54,836.75C3176.1,831.84 3183.39,826.49 3191.03,821.71C3196.56,822.33 3202,823.78 3207.49,824.83C3211.6,826.67 3214.77,830.12 3218.51,832.63C3221.93,834.89 3224.82,838.39 3229.08,839.07C3241.22,841.75 3253.34,844.55 3265.49,847.27C3268.68,847.99 3272.04,848.48 3274.96,850.16C3280.48,853.26 3286.05,856.32 3291.61,859.39C3294.36,860.92 3297.33,862.25 3299.52,864.63C3307.72,873.28 3315.83,882.02 3324.09,890.62C3328.98,888.36 3333.77,885.89 3338.67,883.62C3340.24,882.94 3341.04,881.34 3342.07,880.05C3344.88,876.01 3347.77,872.02 3350.55,867.95C3353.37,868.89 3356.15,869.98 3358.95,871.08C3359.59,873.63 3360.12,876.2 3360.65,878.79C3357.67,882.14 3354.16,885.15 3352.18,889.24C3350.56,892.42 3348.99,895.62 3347.48,898.85C3359.87,896.19 3372.23,891.94 3382.49,884.31C3389.52,894.36 3396.38,904.53 3403.36,914.62C3405.03,916.9 3406.24,919.79 3408.95,921.09C3416.41,925.15 3423.96,929.05 3431.34,933.28C3437.85,928.88 3444.16,924.2 3450.64,919.75C3463.61,929.86 3476.27,940.44 3489.47,950.23C3504.92,952.8 3520.52,954.69 3536.03,957.02C3537.48,957.09 3539.27,957.84 3540.59,956.67C3548.16,951.21 3555.74,945.76 3563.28,940.24C3568.78,936.19 3572.78,930.42 3578.51,926.62C3581.71,924.38 3584.98,922.24 3588.23,920.04C3592.01,921.05 3595.82,922.03 3599.62,923.08C3599.77,927.32 3600.53,931.6 3599.78,935.83C3595.24,959.94 3590.67,984.06 3586.23,1008.19C3585.02,1028.47 3584.24,1048.78 3583.09,1069.07C3582.67,1071.89 3583.87,1074.54 3584.76,1077.16C3586.19,1081.39 3587.6,1085.63 3588.99,1089.88C3586.92,1096.08 3585.05,1102.34 3583.01,1108.55C3586.69,1112 3589.75,1116.1 3593.68,1119.31C3597.39,1121.4 3601.44,1122.82 3605.3,1124.66C3611.91,1121.41 3618.44,1118 3625.1,1114.84C3623.75,1119.44 3622.39,1124.04 3621,1128.63C3622.95,1133.37 3623.9,1138.69 3627.25,1142.75C3632.33,1149.52 3637.3,1156.38 3642.36,1163.17C3637.54,1166.82 3632.46,1170.12 3627.77,1173.91C3626.3,1177.96 3626.45,1182.49 3625.41,1186.69C3621.25,1187.45 3617,1187.4 3612.85,1188.05C3607.96,1180.72 3603.4,1173.18 3598.72,1165.72C3593.32,1165.6 3587.93,1165.72 3582.56,1165.62C3580.66,1171.01 3578.88,1176.44 3577.22,1181.92C3581.83,1188.33 3586.59,1194.64 3591.19,1201.07C3586.68,1205.05 3582.05,1208.9 3577.52,1212.85C3571.73,1211.76 3565.86,1211.01 3560.16,1209.6C3552.04,1205.67 3544.19,1201.2 3536.11,1197.23C3527.43,1200.21 3518.64,1202.85 3510.1,1206.18C3503.8,1209.18 3497.64,1212.47 3491.3,1215.35C3488.25,1216.83 3485.31,1218.62 3481.99,1219.35C3474.85,1221 3467.71,1222.69 3460.58,1224.33C3453.94,1225.64 3448.15,1229.31 3441.97,1231.85C3437.83,1234.03 3432.91,1235.1 3429.72,1238.73C3422.18,1246.58 3414.1,1253.93 3406.82,1262C3391.89,1285.06 3377.05,1308.18 3362.18,1331.28C3360.25,1334.53 3357.79,1337.48 3356.21,1340.92C3354.51,1354.16 3353.8,1367.57 3351.79,1380.74C3346.14,1388.66 3339.97,1396.2 3334.24,1404.07C3331.93,1407.51 3328.06,1409.38 3324.52,1411.26C3313.63,1413.99 3302.53,1415.88 3291.66,1418.67C3288.67,1421.41 3286.46,1424.89 3283.84,1427.97C3288.59,1442.97 3293.88,1457.8 3298.49,1472.85C3290.38,1479.95 3282.64,1487.46 3274.71,1494.75C3270.05,1499.69 3263.79,1502.54 3258.21,1506.23C3244.15,1514.77 3230.32,1523.73 3216.12,1532.02C3193.23,1540.18 3170.21,1548 3147.29,1556.08C3144.29,1557.18 3141.22,1558.36 3138,1558.03C3130.36,1557.49 3122.7,1557.78 3115.07,1557.35C3108.37,1557.83 3101.97,1555.5 3095.47,1554.34C3086.99,1552.71 3078.65,1550.19 3070,1549.63C3062.32,1548.99 3054.67,1548 3046.99,1547.52C3040.73,1548.55 3034.48,1549.83 3028.37,1551.49C3017.65,1555.65 3007.05,1560.11 2996.35,1564.32C2992,1565.92 2987.82,1568.32 2983.11,1568.57C2977.43,1569.58 2971.7,1568.93 2966,1569C2954.77,1568.71 2943.53,1568.21 2932.3,1568.28C2923.67,1570.33 2915.09,1572.62 2906.46,1574.69C2902.26,1575.53 2898.69,1577.98 2894.95,1579.91C2871.28,1592.58 2847.59,1605.22 2823.91,1617.87C2821.44,1619.14 2819.05,1620.87 2816.18,1620.93C2808.4,1621.47 2800.61,1622.48 2792.82,1621.82C2786.92,1621.33 2781.02,1621.82 2775.17,1622.43C2769,1622.41 2764.67,1627.48 2759.52,1630.15C2757.24,1626.53 2754.56,1623.15 2752.65,1619.33C2751.08,1616.35 2751.07,1612.91 2750.6,1609.68C2755.67,1607.87 2760.98,1606.83 2766.03,1604.95C2767.82,1602.83 2768.64,1600.04 2769.99,1597.64C2767.23,1593.89 2765.46,1589.24 2761.52,1586.53C2757.86,1583.83 2754.21,1581.13 2750.64,1578.34C2741.35,1586.48 2732.33,1594.93 2723.04,1603.07C2719.75,1604.87 2715.9,1605.28 2712.4,1606.51C2709.69,1607.1 2706.95,1608.7 2704.16,1607.88C2697.7,1606.36 2691.33,1604.43 2684.82,1603.22C2673.49,1601.95 2662.16,1600.8 2650.83,1599.61C2644.47,1599.17 2638.42,1597.04 2632.27,1595.62C2628.51,1591.35 2624.31,1587.27 2622.13,1581.91C2620.61,1578.13 2618.13,1574.91 2615.35,1572C2611.21,1566.28 2604.08,1564.38 2598.37,1560.73C2594.53,1558.11 2589.94,1557.27 2585.52,1556.32C2579.12,1554.39 2572.47,1556.17 2565.97,1556.24C2555.16,1556.21 2544.95,1560.12 2534.49,1562.3C2530.14,1563.65 2525.18,1563.61 2521.45,1566.49C2508.6,1575.47 2495.67,1584.35 2482.79,1593.29C2474.6,1592.27 2466.41,1591.25 2458.23,1590.31C2455.96,1589.95 2453.45,1590 2451.71,1588.34C2443,1581.35 2433.96,1574.75 2425.41,1567.59C2417.88,1559.07 2410.64,1550.3 2403.24,1541.67C2401.14,1539.32 2398.25,1537.96 2395.71,1536.22C2389.76,1532.28 2383.68,1528.55 2377.82,1524.49C2365.78,1526.64 2353.98,1530.2 2341.78,1531.38C2336.7,1532.29 2331.19,1531.85 2326.64,1534.64C2321.61,1536.93 2317.08,1540.59 2311.47,1541.35C2303.98,1542.54 2296.63,1544.74 2289.03,1545C2276.33,1545.65 2263.65,1546.48 2250.96,1547.12C2245.06,1546.92 2240.41,1551.05 2235.3,1553.32C2228.74,1556.54 2223.15,1561.33 2216.85,1564.96C2211.23,1566.53 2205.39,1567.26 2199.71,1568.55C2192.1,1564.68 2184.62,1560.56 2176.96,1556.81C2172.45,1559.68 2168.4,1563.37 2163.34,1565.25C2161.02,1566.19 2158.71,1567.13 2156.42,1568.09C2153.23,1562.38 2149.9,1556.76 2146.69,1551.07C2139.49,1550.21 2132.25,1549.78 2125.05,1549.02C2121,1548.51 2117.01,1549.44 2113.03,1549.95C2096.66,1552.15 2080.3,1554.44 2063.94,1556.61C2054.68,1555.83 2046.17,1551.7 2037.6,1548.44C2029.73,1545.27 2021.82,1542.22 2013.95,1539.05C2011.38,1538.06 2008.82,1536.76 2006.01,1536.97C1987.28,1537.03 1968.56,1536.98 1949.83,1537C1950.21,1530.09 1950.5,1523.19 1951.03,1516.29C1946.66,1514.22 1942.28,1512.21 1938,1510C1931.52,1511.67 1924.86,1512.63 1918.47,1514.57C1912.33,1518.08 1906.47,1522.08 1900.37,1525.68C1900.31,1529.58 1900.21,1533.49 1900.5,1537.41C1906.95,1537.25 1913.41,1537.37 1919.88,1537.32C1914.45,1544.76 1909.18,1552.34 1903.56,1559.63C1898.04,1563.21 1892.03,1566.02 1886.34,1569.33C1881.4,1571.82 1876.84,1575.22 1871.42,1576.62C1862.91,1578.97 1854.44,1581.47 1845.96,1583.94C1839.73,1585.78 1833.22,1586.26 1826.85,1587.38C1821.56,1588.1 1816.33,1589.27 1811.01,1589.66C1796.37,1589.21 1781.73,1588.52 1767.09,1588.16C1759.7,1588.61 1752.37,1589.82 1744.99,1590.25C1737.08,1589.89 1729.13,1588.07 1721.27,1589.82C1719.55,1591.9 1717.53,1593.73 1715.88,1595.87C1713.03,1603.85 1712.74,1612.37 1712.6,1620.76C1704.36,1619.68 1696.09,1618.82 1687.85,1617.85C1684.33,1617.65 1682.01,1614.63 1679.23,1612.89C1673.41,1608.32 1666.81,1604.64 1661.87,1599.06C1652.25,1588.67 1642.48,1578.43 1632.88,1568.04C1623.23,1567.65 1613.59,1567.07 1603.96,1566.49C1593.67,1564.96 1583.44,1563.03 1573.19,1561.35C1567.47,1560.43 1561.72,1561.42 1555.99,1561.35C1550.33,1561.33 1544.67,1561.19 1539.03,1561.65C1536.18,1561.94 1533.57,1560.63 1530.93,1559.85C1525.76,1558.26 1520.69,1556.35 1515.47,1554.99C1511.15,1558.86 1506.69,1562.55 1502.31,1566.35C1499.23,1568.92 1496.36,1571.82 1492.74,1573.64C1486.19,1577.09 1479.7,1580.68 1473.14,1584.11C1468.31,1586.11 1463.02,1586.63 1458.01,1588.04C1454.74,1588.72 1451.45,1590.04 1448.08,1589.36C1426.74,1586.15 1405.18,1584.75 1383.8,1582.08C1373.09,1576.56 1362.69,1570.43 1352.11,1564.68C1346.9,1568.77 1341.75,1572.93 1336.55,1577.03C1339.84,1588.61 1343.25,1600.15 1346.64,1611.7C1341.51,1611.37 1336.37,1611.27 1331.27,1610.75C1325.5,1602.76 1320.45,1594.24 1314.94,1586.07C1310.17,1579.16 1306.26,1571.67 1302.75,1564.08C1302.92,1550.17 1303.19,1536.23 1303.33,1522.31C1317.69,1515.38 1332.43,1509.19 1346.38,1501.44C1351.34,1498.95 1356.97,1498.31 1362.02,1496.06C1365.51,1494.31 1368.93,1492.42 1372.37,1490.57C1373.91,1486.78 1375.53,1483.02 1377.09,1479.24C1374.97,1476.57 1373.37,1473.47 1370.97,1471.05C1367.22,1468.7 1363.14,1466.91 1359.27,1464.78C1357.42,1463.46 1355.2,1464.13 1353.19,1464.51C1348.17,1465.5 1343.16,1466.47 1338.13,1467.37C1332.11,1464.56 1325.99,1461.98 1319.96,1459.21C1320.34,1449.82 1320.29,1440.38 1321.2,1431.04C1323.85,1426.23 1327.25,1421.84 1330.34,1417.3C1334.76,1413.29 1340.06,1410.34 1344.66,1406.53C1342.62,1400.96 1340.19,1395.53 1338.52,1389.84C1336.6,1381.9 1334.76,1373.94 1332.89,1366C1337.78,1360.42 1343.3,1355.47 1348.29,1350C1347.57,1341.7 1348.4,1333.36 1347.71,1325.06C1347.66,1317.35 1347.69,1309.63 1347.4,1301.94C1350.35,1289.22 1354.03,1276.65 1357.26,1263.99C1359,1258.11 1360.05,1251.98 1362.2,1246.25C1366.89,1240.64 1372.06,1235.41 1377.26,1230.26C1380.54,1226.89 1384.83,1224.18 1386.65,1219.66C1388.86,1214.73 1391.15,1209.83 1393.47,1204.95C1388.82,1198.15 1386.05,1189.81 1379.3,1184.69C1375.25,1181.04 1371.18,1177.42 1367.15,1173.77C1364.83,1171.9 1364.53,1168.75 1363.59,1166.14C1356.77,1144.41 1349.96,1122.68 1343.05,1100.99C1339.42,1092.15 1334.79,1083.75 1330.86,1075.04C1329.97,1073.33 1329.32,1070.9 1326.97,1070.95C1308.28,1067.37 1289.63,1063.56 1271.29,1058.49C1270.15,1058.01 1269.92,1056.57 1269.3,1055.67C1263.5,1043.91 1257.37,1032.33 1251.49,1020.62C1247.63,1012.21 1241.99,1004.8 1237.14,996.96C1232.73,990.85 1230.46,983.6 1227.31,976.83C1225.65,972.55 1223.29,968.51 1222.07,964.09C1222.75,960.56 1223.92,957.15 1224.79,953.67C1236.87,950.21 1248.92,946.62 1261,943.14C1267.26,941.49 1273.04,938.51 1279.01,936.06C1291.39,930.68 1303.8,925.37 1316.28,920.22C1321.03,918.15 1326.03,916.5 1330.34,913.52C1337.14,908.91 1344.56,905.18 1350.87,899.86C1361.47,891.43 1372.07,882.99 1382.6,874.47C1382.86,863.25 1384.1,852.06 1384.22,840.86C1379.72,832.2 1374.51,823.91 1369.78,815.38C1368.89,814.07 1369.03,812.45 1368.96,810.98C1368.57,799.31 1367.68,787.65 1367.39,775.99C1374.49,765.45 1382.81,755.62 1390.28,745.27C1391.74,743.58 1392.78,741.13 1395.1,740.47C1417.88,733.81 1440.67,727.18 1463.45,720.49Z" style="fill-rule:nonzero;stroke:black;stroke-width:0.09px;"/>
    </g>
    <g transform="matrix(1,0,0,1,-370.447,-71.367)">
        <path d="M4034.02,996.68C4039.73,996.72 4045.5,995.7 4051.2,996.79C4063.12,999.18 4075.02,1001.7 4086.97,1004C4092.57,1004.95 4097.22,1008.5 4102.43,1010.59C4110.15,1014.47 4118.04,1018.1 4125.6,1022.3C4131.49,1030.85 4137.04,1039.66 4142.82,1048.3C4136.42,1050.32 4129.73,1048.19 4123.21,1048.26C4126.21,1051.86 4129.69,1055.04 4132.79,1058.59C4126.17,1058.62 4119.33,1060.42 4112.94,1058.07C4108.7,1057.13 4104.44,1055.84 4101.65,1052.31C4096.46,1048.86 4095.81,1042.36 4093.73,1037.01C4090.41,1036.99 4087.12,1036.99 4083.85,1037.01C4088.11,1046.01 4093.04,1054.72 4097,1063.87C4097.63,1068.54 4100.33,1073.54 4098.14,1078.12C4096.59,1081.93 4095.18,1085.79 4093.59,1089.58C4087.32,1079.76 4081.14,1069.88 4074.93,1060.03C4073.26,1057.38 4070.73,1055.48 4068.54,1053.34C4050.22,1036.21 4031.96,1019.02 4013.63,1001.91C4013.75,1000.15 4013.87,998.39 4014.09,996.66C4020.72,996.67 4027.36,996.66 4034.02,996.68Z" style="fill-rule:nonzero;stroke:black;stroke-width:0.09px;"/>
    </g>
    <g transform="matrix(1,0,0,1,-370.447,-71.367)">
        <path d="M3810.18,1274.59C3846.79,1268.72 3883.38,1262.75 3919.99,1256.86C3923.96,1256.76 3927.84,1258.11 3931.8,1258.6C3941.05,1259.73 3949.55,1263.75 3958.37,1266.55C3967.57,1269.79 3976.82,1272.92 3986.03,1276.2C3987.9,1276.89 3989.89,1277.38 3991.95,1277.47C4015.98,1278.46 4040.02,1279.31 4064.05,1280.4C4070.05,1281.72 4075.56,1284.77 4081.41,1286.72C4084.34,1287.44 4085.8,1290.24 4087.61,1292.41C4091.02,1296.73 4094.52,1300.98 4097.86,1305.38C4094.22,1307.15 4090.83,1309.67 4086.99,1310.81C4074.3,1310.21 4061.63,1308.92 4048.95,1308.44C4044.25,1309.94 4039.39,1311.44 4035.47,1314.53C4028.41,1319.43 4021.38,1324.36 4014.29,1329.21C4010.19,1331.83 4007.63,1336.1 4004.14,1339.37C4000.78,1339.32 3997.44,1339.32 3994.14,1339.33C3990.12,1335.05 3985.58,1331.32 3981.6,1327.03C3974.43,1328.74 3967.23,1330.29 3960.16,1332.27C3950.69,1335.88 3941.54,1340.33 3932.01,1343.74C3895.06,1352.57 3858.04,1361.12 3821.09,1369.95C3813.09,1373.12 3805.47,1377.19 3797.69,1380.85C3787.67,1377.97 3777.86,1374.35 3767.85,1371.47C3755.2,1372.62 3742.6,1374.48 3729.98,1375.91C3726.68,1376.27 3723.38,1376.96 3720.11,1376.39C3707.07,1374.53 3694.03,1372.74 3681,1370.9C3673.61,1356.76 3666.31,1342.58 3659.01,1328.41C3666.98,1328.02 3674.98,1327.47 3682.98,1327.77C3690.33,1328.85 3697.69,1327.23 3705.05,1326.85C3710.17,1326.15 3715.6,1326.68 3720.45,1324.49C3728.85,1321.16 3737.42,1318.24 3745.77,1314.74C3754,1310.07 3761.99,1304.95 3770.15,1300.14C3778.34,1294.47 3785.4,1287.28 3793.68,1281.73C3799.1,1279.22 3804,1275.06 3810.18,1274.59Z" style="fill-rule:nonzero;stroke:black;stroke-width:0.09px;"/>
    </g>
    <g transform="matrix(1,0,0,1,-162.736,-74.8546)">
        <path d="M294.02,1339.66C318.04,1338.97 342.05,1338.22 366.07,1337.54C370.27,1337.1 374.42,1338.42 378.33,1339.8C384.18,1344.47 389.34,1349.96 394.98,1354.9C394.93,1358.35 394.99,1361.81 395.38,1365.26C392.42,1369.33 389.02,1373.09 386.37,1377.38C381.63,1385.72 377.23,1394.27 372.34,1402.53C368.57,1406.96 364.27,1411.07 361.58,1416.32C360.64,1420.09 360.32,1424.01 359.61,1427.85C356.93,1429.61 354.58,1432.47 351.12,1432.54C344.4,1433.43 337.62,1433.93 330.89,1432.77C324.39,1432.94 319.61,1427.59 316.54,1422.46C313.95,1419.11 312.42,1414.59 308.36,1412.71C296.11,1405.91 283.88,1399.06 271.65,1392.24C269.48,1391.34 268.91,1388.93 267.96,1387.04C265.61,1381.57 262.84,1376.29 260.55,1370.81C262.74,1364 266.16,1357.58 268.74,1350.88C269.4,1348.23 272.13,1347.39 274.24,1346.21C277.75,1344.47 281.15,1342.53 284.66,1340.79C287.55,1339.34 290.89,1339.74 294.02,1339.66Z" style="fill-rule:nonzero;stroke:black;stroke-width:0.09px;"/>
    </g>
</svg>
